<svg width="33" height="30" viewBox="0 0 33 30" fill="none" xmlns="http://www.w3.org/2000/svg">
<g clip-path="url(#clip0_2_1500)">
<path d="M14.183 25.428L10.7271 12.5829L9.15361 28.42H2.68793L5.56048 3.53649C5.76636 1.39003 7.6144 0.157962 9.15361 0.0167697C10.7958 -0.124423 13.0883 0.579858 13.7043 2.90281L17.8432 19.0223L21.982 2.90281C22.5997 0.579858 24.8922 -0.124423 26.5327 0.0167697C28.0719 0.157962 29.92 1.39003 30.1258 3.53649L33 28.4183H26.5343L24.9951 12.4753L21.5049 25.4263C21.1634 26.6231 19.1438 27.1509 17.8448 27.1509C16.5458 27.1509 14.5262 26.6231 14.1847 25.4263L14.183 25.428Z" fill="#CECECF"/>
<path d="M14.0964 25.4784L10.6405 12.6333L9.067 28.4703H2.60132L5.47387 3.58688C5.67975 1.44042 7.52615 0.204985 9.067 0.0688352C10.7092 -0.0773997 13.0016 0.631924 13.6177 2.95487L17.7565 19.0743L21.8954 2.95487C22.5131 0.631924 24.8056 -0.0773997 26.4461 0.0688352C27.9869 0.204985 29.8333 1.4421 30.0392 3.58856L32.9134 28.4703H26.4477L24.9085 12.5274L21.4183 25.4784C21.0768 26.6752 19.0572 27.203 17.7582 27.203C16.4592 27.203 14.4396 26.6752 14.0981 25.4784H14.0964Z" fill="#C8C8C9"/>
<path d="M14.0098 25.5289L10.5539 12.6838L8.9804 28.5209H2.51471L5.38726 3.63909C5.59314 1.49264 7.43955 0.255522 8.9804 0.119372C10.6226 -0.0268626 12.915 0.68246 13.531 3.00541L17.6699 19.1249L21.8088 3.00541C22.4265 0.68246 24.719 -0.0268626 26.3595 0.119372C27.9003 0.255522 29.7467 1.49264 29.9526 3.63909L32.8268 28.5209H26.3611L24.8219 12.5779L21.3317 25.5289C20.9902 26.7257 18.9706 27.2535 17.6716 27.2535C16.3726 27.2535 14.3529 26.7257 14.0114 25.5289H14.0098Z" fill="#C2C3C4"/>
<path d="M13.9232 25.5809L10.4673 12.7358L8.89377 28.5728H2.42645L5.30064 3.68939C5.50652 1.54293 7.35292 0.305815 8.89214 0.169665C10.5343 0.0234303 12.8268 0.732754 13.4428 3.0557L17.5817 19.1752L21.7206 3.0557C22.3366 0.732754 24.6291 0.0251112 26.2712 0.169665C27.8121 0.305815 29.6585 1.54293 29.8644 3.68939L32.7385 28.5712H26.2729L24.7336 12.6282L21.2434 25.5792C20.9019 26.776 18.8823 27.3038 17.5833 27.3038C16.2843 27.3038 14.2647 26.776 13.9232 25.5792V25.5809Z" fill="#BCBDBE"/>
<path d="M13.8366 25.6315L10.3807 12.7863L8.80716 28.6234H2.33984L5.21403 3.73992C5.41991 1.59347 7.26631 0.356352 8.80553 0.220202C10.4477 0.0739675 12.7402 0.783291 13.3562 3.10624L17.4951 19.2257L21.634 3.10624C22.25 0.783291 24.5425 0.0756483 26.1846 0.220202C27.7255 0.356352 29.5719 1.59347 29.7778 3.73992L32.6519 28.6217H26.1862L24.647 12.6787L21.1568 25.6298C20.8153 26.8265 18.7957 27.3543 17.4967 27.3543C16.1977 27.3543 14.1781 26.8265 13.8366 25.6298V25.6315Z" fill="#B6B7B9"/>
<path d="M13.75 25.6818L10.2941 12.8366L8.72062 28.6737H2.2533L5.12748 3.79193C5.33336 1.64547 7.17977 0.408354 8.71898 0.272204C10.3611 0.125969 12.6536 0.835293 13.2696 3.15824L17.4085 19.2777L21.5474 3.15824C22.1634 0.835293 24.4559 0.12765 26.0981 0.272204C27.6389 0.408354 29.4853 1.64547 29.6912 3.79193L32.5654 28.6737H26.0997L24.5605 12.7307L21.0703 25.6818C20.7288 26.8785 18.7092 27.4063 17.4102 27.4063C16.1111 27.4063 14.0915 26.8785 13.75 25.6818Z" fill="#B0B2B3"/>
<path d="M13.6634 25.734L10.2075 12.8889L8.63401 28.7259H2.16669L5.04087 3.84246C5.24675 1.696 7.09316 0.458891 8.63237 0.322741C10.2745 0.176507 12.567 0.88583 13.183 3.20878L17.3219 19.3282L21.4608 3.20878C22.0768 0.88583 24.3693 0.178187 26.0115 0.322741C27.5523 0.458891 29.3987 1.696 29.6046 3.84246L32.4788 28.7242H26.0131L24.4739 12.7813L20.9837 25.7323C20.6422 26.9291 18.6226 27.4569 17.3235 27.4569C16.0245 27.4569 14.0049 26.9291 13.6634 25.7323V25.734Z" fill="#AAACAD"/>
<path d="M13.5752 25.7843L10.1193 12.9392L8.54576 28.7762H2.08008L4.95426 3.89447C5.16014 1.74801 7.00655 0.510893 8.54576 0.374743C10.1879 0.228508 12.4804 0.937832 13.0964 3.26078L17.2353 19.3802L21.3742 3.26078C21.9902 0.937832 24.2827 0.230189 25.9248 0.374743C27.4657 0.510893 29.3121 1.74801 29.518 3.89447L32.3922 28.7762H25.9265L24.3873 12.8333L20.8971 25.7843C20.5556 26.9811 18.536 27.5089 17.2369 27.5089C15.9379 27.5089 13.9183 26.9811 13.5768 25.7843H13.5752Z" fill="#A4A6A8"/>
<path d="M13.4886 25.8349L10.0327 12.9897L8.45916 28.8268H1.99347L4.86765 3.945C5.07353 1.79854 6.91994 0.56143 8.45916 0.42528C10.1013 0.279046 12.3938 0.988369 13.0098 3.31132L17.1487 19.4308L21.2876 3.31132C21.9036 0.988369 24.1961 0.280726 25.8382 0.42528C27.3791 0.56143 29.2255 1.79854 29.4314 3.945L32.3056 28.8268H25.8399L24.3007 12.8838L20.8105 25.8349C20.469 27.0316 18.4494 27.5594 17.1503 27.5594C15.8513 27.5594 13.8317 27.0316 13.4902 25.8349H13.4886Z" fill="#9EA1A2"/>
<path d="M13.402 25.8868L9.94608 13.0417L8.37255 28.8788H1.90686L4.78104 3.9953C4.98693 1.84884 6.83333 0.611723 8.37255 0.475573C10.0147 0.329339 12.3072 1.03866 12.9232 3.36161L17.0621 19.4811L21.201 3.36161C21.817 1.03866 24.1095 0.331019 25.7516 0.475573C27.2925 0.611723 29.1389 1.84884 29.3448 3.9953L32.2189 28.8771H25.7533L24.214 12.9341L20.7239 25.8851C20.3824 27.0819 18.3627 27.6097 17.0637 27.6097C15.7647 27.6097 13.7451 27.0819 13.4036 25.8851L13.402 25.8868Z" fill="#989B9C"/>
<path d="M13.3153 25.9374L9.85947 13.0923L8.28594 28.9293H1.82025L4.69443 4.04754C4.90032 1.90108 6.74672 0.663969 8.28594 0.52782C9.92809 0.381585 12.2206 1.09091 12.8366 3.41386L16.9755 19.5333L21.1144 3.41386C21.7304 1.09091 24.0229 0.383266 25.665 0.52782C27.2059 0.663969 29.0523 1.90108 29.2582 4.04754L32.1323 28.9293H25.6667L24.1274 12.9864L20.6372 25.9374C20.2957 27.1342 18.2761 27.662 16.9771 27.662C15.6781 27.662 13.6585 27.1342 13.317 25.9374H13.3153Z" fill="#929597"/>
<path d="M13.2287 25.9877L9.77286 13.1425L8.19933 28.9796H1.73364L4.60783 4.09783C4.81371 1.95138 6.66011 0.714262 8.19933 0.578112C9.84149 0.431878 12.134 1.1412 12.75 3.46415L16.8889 19.5836L21.0278 3.46415C21.6438 1.1412 23.9363 0.433558 25.5784 0.578112C27.1193 0.714262 28.9657 1.95138 29.1715 4.09783L32.0457 28.9796H25.58L24.0408 13.0367L20.5506 25.9877C20.2091 27.1845 18.1895 27.7122 16.8905 27.7122C15.5915 27.7122 13.5719 27.1845 13.2304 25.9877H13.2287Z" fill="#8C9091"/>
<path d="M13.1421 26.0399L9.68625 13.1948L8.11272 29.0318H1.64703L4.52122 4.14837C4.7271 2.00191 6.5735 0.764799 8.11272 0.62865C9.75488 0.482415 12.0474 1.19174 12.6634 3.51469L16.8023 19.6341L20.9412 3.51469C21.5572 1.19174 23.8496 0.484096 25.4918 0.62865C27.0327 0.764799 28.8791 2.00191 29.0849 4.14837L31.9591 29.0302H25.4934L23.9542 13.0872L20.464 26.0382C20.1225 27.235 18.1029 27.7628 16.8039 27.7628C15.5049 27.7628 13.4853 27.235 13.1438 26.0382L13.1421 26.0399Z" fill="#868A8C"/>
<path d="M13.0556 26.0902L9.5997 13.2451L8.02617 29.0822H1.56049L4.43467 4.20037C4.64055 2.05391 6.48696 0.816801 8.02617 0.680652C9.66833 0.534417 11.9608 1.24374 12.5768 3.56669L16.7157 19.6861L20.8546 3.56669C21.4706 1.24374 23.7631 0.536098 25.4053 0.680652C26.9461 0.816801 28.7925 2.05391 28.9984 4.20037L31.8726 29.0822H25.4069L23.8677 13.1392L20.3775 26.0902C20.036 27.287 18.0164 27.8148 16.7173 27.8148C15.4183 27.8148 13.3987 27.287 13.0572 26.0902H13.0556Z" fill="#808486"/>
<path d="M12.969 26.1424L9.51309 13.2973L7.93956 29.1344H1.47388L4.34806 4.25091C4.55394 2.10445 6.40035 0.867338 7.93956 0.731189C9.58172 0.584954 11.8742 1.29428 12.4902 3.61723L16.6291 19.7367L20.768 3.61723C21.384 1.29428 23.6765 0.586635 25.3186 0.731189C26.8595 0.867338 28.7059 2.10445 28.9118 4.25091L31.786 29.1327H25.3203L23.7811 13.1897L20.2909 26.1408C19.9494 27.3375 17.9298 27.8653 16.6307 27.8653C15.3317 27.8653 13.3121 27.3375 12.9706 26.1408L12.969 26.1424Z" fill="#7A7F80"/>
<path d="M12.8824 26.1927L9.42648 13.3476L7.85295 29.1847H1.38727L4.26145 4.3012C4.46733 2.15474 6.31374 0.917631 7.85295 0.781482C9.49511 0.635247 11.7876 1.34457 12.4036 3.66752L16.5425 19.787L20.6814 3.66752C21.2974 1.34457 23.5899 0.636928 25.232 0.781482C26.7729 0.917631 28.6193 2.15474 28.8252 4.3012L31.6994 29.183H25.2337L23.6945 13.24L20.2043 26.1911C19.8628 27.3878 17.8431 27.9156 16.5441 27.9156C15.2451 27.9156 13.2255 27.3878 12.884 26.1911L12.8824 26.1927Z" fill="#74797B"/>
<path d="M12.7958 26.2433L9.33987 13.3982L7.76635 29.2352H1.30066L4.17484 4.35345C4.38072 2.20699 6.22713 0.969877 7.76635 0.833728C9.4085 0.687493 11.701 1.39682 12.317 3.71977L16.4559 19.8392L20.5948 3.71977C21.2108 1.39682 23.5033 0.689174 25.1454 0.833728C26.6863 0.969877 28.5327 2.20699 28.7386 4.35345L31.6127 29.2352H25.1471L23.6078 13.2923L20.1177 26.2433C19.7761 27.4401 17.7565 27.9679 16.4575 27.9679C15.1585 27.9679 13.1389 27.4401 12.7974 26.2433H12.7958Z" fill="#6E7375"/>
<path d="M12.7091 26.2953L9.25327 13.4501L7.67974 29.2872H1.21405L4.08823 4.40374C4.29412 2.25728 6.14052 1.02017 7.67974 0.884021C9.32189 0.737786 11.6144 1.44711 12.2304 3.77006L16.3693 19.8895L20.5082 3.77006C21.1242 1.44711 23.4167 0.739467 25.0588 0.884021C26.5997 1.02017 28.4461 2.25728 28.652 4.40374L31.5261 29.2855H25.0605L23.5212 13.3426L20.031 26.2936C19.6895 27.4904 17.6699 28.0182 16.3709 28.0182C15.0719 28.0182 13.0523 27.4904 12.7108 26.2936L12.7091 26.2953Z" fill="#686D70"/>
<path d="M12.6225 26.3458L9.16666 13.5007L7.59313 29.3377H1.12744L4.00162 4.45428C4.20751 2.30782 6.05391 1.07071 7.59313 0.934558C9.23528 0.788323 11.5278 1.49765 12.1438 3.8206L16.2827 19.94L20.4216 3.8206C21.0376 1.49765 23.3301 0.790004 24.9722 0.934558C26.5131 1.07071 28.3595 2.30782 28.5653 4.45428L31.4395 29.3361H24.9738L23.4346 13.3931L19.9444 26.3441C19.6029 27.5409 17.5833 28.0687 16.2843 28.0687C14.9853 28.0687 12.9657 27.5409 12.6242 26.3441L12.6225 26.3458Z" fill="#62686A"/>
<path d="M12.5359 26.3961L9.08005 13.551L7.50652 29.3881H1.04083L3.91338 4.50628C4.11926 2.35982 5.96567 1.12271 7.50489 0.98656C9.14704 0.840325 11.4395 1.54965 12.0555 3.8726L16.1944 19.9921L20.3333 3.8726C20.9493 1.54965 23.2418 0.842006 24.884 0.98656C26.4248 1.12271 28.2712 2.35982 28.4771 4.50628L31.3513 29.3881H24.8856L23.3464 13.4451L19.8562 26.3961C19.5147 27.5929 17.4951 28.1207 16.1961 28.1207C14.897 28.1207 12.8774 27.5929 12.5359 26.3961Z" fill="#5C6264"/>
<path d="M12.4493 26.4483L8.99344 13.6032L7.41991 29.4403H0.954224L3.82677 4.55682C4.03266 2.41036 5.87906 1.17325 7.41828 1.0371C9.06043 0.890862 11.3529 1.60019 11.9689 3.92313L16.1078 20.0426L20.2467 3.92313C20.8627 1.60019 23.1552 0.892543 24.7974 1.0371C26.3382 1.17325 28.1846 2.41036 28.3905 4.55682L31.2647 29.4386H24.799L23.2598 13.4956L19.7696 26.4467C19.4281 27.6434 17.4085 28.1712 16.1095 28.1712C14.8104 28.1712 12.7908 27.6434 12.4493 26.4467V26.4483Z" fill="#565C5F"/>
<path d="M12.3628 26.4989L8.90689 13.6537L7.33336 29.4908H0.867676L3.74022 4.60736C3.94611 2.4609 5.79251 1.22378 7.33173 1.08763C8.97388 0.941399 11.2664 1.65072 11.8824 3.97367L16.0213 20.0931L20.1602 3.97367C20.7762 1.65072 23.0687 0.94308 24.7108 1.08763C26.2517 1.22378 28.0981 2.4609 28.304 4.60736L31.1781 29.4891H24.7124L23.1732 13.5462L19.683 26.4972C19.3415 27.694 17.3219 28.2218 16.0229 28.2218C14.7239 28.2218 12.7043 27.694 12.3628 26.4972V26.4989Z" fill="#505759"/>
<path d="M12.2762 26.5492L8.82027 13.7041L7.24674 29.5411H0.779419L3.6536 4.65936C3.85948 2.5129 5.70589 1.27579 7.2451 1.13964C8.88726 0.993401 11.1797 1.70272 11.7958 4.02567L15.9346 20.1451L20.0735 4.02567C20.6895 1.70272 22.982 0.995082 24.6242 1.13964C26.165 1.27579 28.0114 2.5129 28.2173 4.65936L31.0915 29.5411H24.6258L23.0866 13.5982L19.5964 26.5492C19.2549 27.746 17.2353 28.2738 15.9363 28.2738C14.6373 28.2738 12.6177 27.746 12.2762 26.5492Z" fill="#4A5154"/>
<path d="M12.1895 26.6012L8.73366 13.756L7.16013 29.5931H0.69281L3.56699 4.70965C3.77288 2.56319 5.61928 1.32608 7.1585 1.18993C8.80065 1.04369 11.0931 1.75302 11.7092 4.07597L15.848 20.1954L19.9869 4.07597C20.6029 1.75302 22.8954 1.04537 24.5376 1.18993C26.0784 1.32608 27.9248 2.56319 28.1307 4.70965L31.0049 29.5914H24.5392L23 13.6485L19.5098 26.5995C19.1683 27.7963 17.1487 28.3241 15.8497 28.3241C14.5507 28.3241 12.531 27.7963 12.1895 26.5995V26.6012Z" fill="#444B4E"/>
<path d="M12.1029 26.6517L8.64705 13.8066L7.07352 29.6437H0.606201L3.48038 4.7619C3.68627 2.61544 5.53267 1.37832 7.07189 1.24217C8.71404 1.09594 11.0065 1.80526 11.6225 4.12821L15.7614 20.2477L19.9003 4.12821C20.5163 1.80526 22.8088 1.09762 24.451 1.24217C25.9918 1.37832 27.8382 2.61544 28.0441 4.7619L30.9183 29.6437H24.4526L22.9134 13.7007L19.4232 26.6517C19.0817 27.8485 17.0621 28.3763 15.7631 28.3763C14.464 28.3763 12.4444 27.8485 12.1029 26.6517Z" fill="#3E4648"/>
<path d="M12.0163 26.702L8.56044 13.8569L6.98691 29.694H0.519592L3.39378 4.81219C3.59966 2.66573 5.44606 1.42862 6.98528 1.29247C8.62743 1.14623 10.9199 1.85556 11.5359 4.17851L15.6748 20.298L19.8137 4.17851C20.4297 1.85556 22.7222 1.14791 24.3644 1.29247C25.9052 1.42862 27.7516 2.66573 27.9575 4.81219L30.8317 29.694H24.366L22.8268 13.751L19.3366 26.702C18.9951 27.8988 16.9755 28.4266 15.6765 28.4266C14.3774 28.4266 12.3578 27.8988 12.0163 26.702Z" fill="#384043"/>
<path d="M11.9281 26.7543L8.4722 13.9091L6.89867 29.7462H0.432983L3.30717 4.86273C3.51305 2.71627 5.35945 1.47915 6.89867 1.34301C8.54083 1.19677 10.8333 1.90609 11.4493 4.22904L15.5882 20.3485L19.7271 4.22904C20.3431 1.90609 22.6356 1.19845 24.2778 1.34301C25.8186 1.47915 27.665 2.71627 27.8709 4.86273L30.7451 29.7445H24.2794L22.7402 13.8015L19.25 26.7526C18.9085 27.9494 16.8889 28.4771 15.5898 28.4771C14.2908 28.4771 12.2712 27.9494 11.9297 26.7526L11.9281 26.7543Z" fill="#323A3D"/>
<path d="M11.8415 26.8046L8.38565 13.9594L6.81212 29.7965H0.346436L3.22062 4.91473C3.4265 2.76827 5.27291 1.53116 6.81212 1.39501C8.45428 1.24877 10.7468 1.9581 11.3628 4.28104L15.5017 20.4005L19.6406 4.28104C20.2566 1.9581 22.549 1.25045 24.1912 1.39501C25.7321 1.53116 27.5785 2.76827 27.7843 4.91473L30.6585 29.7965H24.1928L22.6536 13.8535L19.1634 26.8046C18.8219 28.0014 16.8023 28.5291 15.5033 28.5291C14.2043 28.5291 12.1847 28.0014 11.8432 26.8046H11.8415Z" fill="#2C3537"/>
<path d="M11.7549 26.8568L8.29904 14.0117L6.72551 29.8487H0.259827L3.13401 4.96527C3.33989 2.81881 5.1863 1.58169 6.72551 1.44554C8.36767 1.29931 10.6602 2.00863 11.2762 4.33158L15.4151 20.451L19.5539 4.33158C20.17 2.00863 22.4624 1.30099 24.1046 1.44554C25.6454 1.58169 27.4919 2.81881 27.6977 4.96527L30.5719 29.847H24.1062L22.567 13.9041L19.0768 26.8551C18.7353 28.0519 16.7157 28.5797 15.4167 28.5797C14.1177 28.5797 12.0981 28.0519 11.7566 26.8551L11.7549 26.8568Z" fill="#262F32"/>
<path d="M11.6683 26.9073L8.21243 14.0622L6.6389 29.8993H0.173218L3.0474 5.0158C3.25328 2.86934 5.09969 1.63223 6.6389 1.49608C8.28106 1.34985 10.5735 2.05917 11.1896 4.38212L15.3284 20.5016L19.4673 4.38212C20.0833 2.05917 22.3758 1.35153 24.018 1.49608C25.5588 1.63223 27.4052 2.86934 27.6111 5.0158L30.4853 29.8976H24.0196L22.4804 13.9546L18.9902 26.9057C18.6487 28.1024 16.6291 28.6302 15.3301 28.6302C14.0311 28.6302 12.0115 28.1024 11.6699 26.9057L11.6683 26.9073Z" fill="#20292C"/>
<path d="M11.5817 26.9577L8.12582 14.1125L6.55229 29.9496H0.0866089L2.96079 5.06781C3.16667 2.92135 5.01308 1.68423 6.55229 1.54808C8.19445 1.40185 10.4869 2.11117 11.1029 4.43412L15.2418 20.5536L19.3807 4.43412C19.9967 2.11117 22.2892 1.40353 23.9314 1.54808C25.4722 1.68423 27.3186 2.92135 27.5245 5.06781L30.3987 29.9496H23.933L22.3938 14.0066L18.9036 26.9577C18.5621 28.1544 16.5425 28.6822 15.2435 28.6822C13.9445 28.6822 11.9248 28.1544 11.5833 26.9577H11.5817Z" fill="#1A2427"/>
<path d="M11.4951 27.0098L8.03922 14.1647L6.46569 30.0017H0L2.87418 5.11828C3.08007 2.97182 4.92647 1.73975 6.46569 1.59856C8.10784 1.45736 10.4003 2.16165 11.0163 4.48459L15.1552 20.604L19.2941 4.48459C19.9101 2.16165 22.2026 1.45736 23.8448 1.59856C25.384 1.73975 27.232 2.97182 27.4379 5.11828L30.3121 30.0001H23.8464L22.3072 14.0571L18.817 27.0081C18.4755 28.2049 16.4559 28.7327 15.1569 28.7327C13.8578 28.7327 11.8382 28.2049 11.4967 27.0081L11.4951 27.0098Z" fill="#141E21"/>
<path d="M11.4951 27.0099L8.03922 14.1647L6.46569 30.0018H0L2.87418 5.11834C3.08007 2.97188 4.92647 1.73477 6.46569 1.59862C8.10784 1.45239 10.4003 2.16171 11.0163 4.48466L15.1552 20.6041L19.2941 4.48466C19.9101 2.16171 22.2026 1.45407 23.8448 1.59862C25.3856 1.73477 27.232 2.97188 27.4379 5.11834L30.3121 30.0001H23.8464L22.3072 14.0572L18.817 27.0082C18.4755 28.205 16.4559 28.7328 15.1569 28.7328C13.8578 28.7328 11.8382 28.205 11.4967 27.0082L11.4951 27.0099Z" fill="#131D20"/>
<path d="M11.4951 27.0099L8.03922 14.1647L6.46569 30.0018H0L2.87418 5.11834C3.08007 2.97188 4.92647 1.73477 6.46569 1.59862C8.10784 1.45239 10.4003 2.16171 11.0163 4.48466L15.1552 20.6041L19.2941 4.48466C19.9101 2.16171 22.2026 1.45407 23.8448 1.59862C25.3856 1.73477 27.232 2.97188 27.4379 5.11834L30.3121 30.0001H23.8464L22.3072 14.0572L18.817 27.0082C18.4755 28.205 16.4559 28.7328 15.1569 28.7328C13.8578 28.7328 11.8382 28.205 11.4967 27.0082L11.4951 27.0099Z" fill="#131C1F"/>
<path d="M11.4951 27.0099L8.03922 14.1647L6.46569 30.0018H0L2.87418 5.11834C3.08007 2.97188 4.92647 1.73477 6.46569 1.59862C8.10784 1.45239 10.4003 2.16171 11.0163 4.48466L15.1552 20.6041L19.2941 4.48466C19.9101 2.16171 22.2026 1.45407 23.8448 1.59862C25.3856 1.73477 27.232 2.97188 27.4379 5.11834L30.3121 30.0001H23.8464L22.3072 14.0572L18.817 27.0082C18.4755 28.205 16.4559 28.7328 15.1569 28.7328C13.8578 28.7328 11.8382 28.205 11.4967 27.0082L11.4951 27.0099Z" fill="#121B1E"/>
<path d="M11.4951 27.0099L8.03922 14.1647L6.46569 30.0018H0L2.87418 5.11834C3.08007 2.97188 4.92647 1.73477 6.46569 1.59862C8.10784 1.45239 10.4003 2.16171 11.0163 4.48466L15.1552 20.6041L19.2941 4.48466C19.9101 2.16171 22.2026 1.45407 23.8448 1.59862C25.3856 1.73477 27.232 2.97188 27.4379 5.11834L30.3121 30.0001H23.8464L22.3072 14.0572L18.817 27.0082C18.4755 28.205 16.4559 28.7328 15.1569 28.7328C13.8578 28.7328 11.8382 28.205 11.4967 27.0082L11.4951 27.0099Z" fill="#111A1D"/>
<path d="M11.4951 27.0099L8.03922 14.1647L6.46569 30.0018H0L2.87418 5.11834C3.08007 2.97188 4.92647 1.73477 6.46569 1.59862C8.10784 1.45239 10.4003 2.16171 11.0163 4.48466L15.1552 20.6041L19.2941 4.48466C19.9101 2.16171 22.2026 1.45407 23.8448 1.59862C25.3856 1.73477 27.232 2.97188 27.4379 5.11834L30.3121 30.0001H23.8464L22.3072 14.0572L18.817 27.0082C18.4755 28.205 16.4559 28.7328 15.1569 28.7328C13.8578 28.7328 11.8382 28.205 11.4967 27.0082L11.4951 27.0099Z" fill="#11191C"/>
<path d="M11.4951 27.0099L8.03922 14.1647L6.46569 30.0018H0L2.87418 5.11834C3.08007 2.97188 4.92647 1.73477 6.46569 1.59862C8.10784 1.45239 10.4003 2.16171 11.0163 4.48466L15.1552 20.6041L19.2941 4.48466C19.9101 2.16171 22.2026 1.45407 23.8448 1.59862C25.3856 1.73477 27.232 2.97188 27.4379 5.11834L30.3121 30.0001H23.8464L22.3072 14.0572L18.817 27.0082C18.4755 28.205 16.4559 28.7328 15.1569 28.7328C13.8578 28.7328 11.8382 28.205 11.4967 27.0082L11.4951 27.0099Z" fill="#10181B"/>
<path d="M11.4951 27.0099L8.03922 14.1647L6.46569 30.0018H0L2.87418 5.11834C3.08007 2.97188 4.92647 1.73477 6.46569 1.59862C8.10784 1.45239 10.4003 2.16171 11.0163 4.48466L15.1552 20.6041L19.2941 4.48466C19.9101 2.16171 22.2026 1.45407 23.8448 1.59862C25.3856 1.73477 27.232 2.97188 27.4379 5.11834L30.3121 30.0001H23.8464L22.3072 14.0572L18.817 27.0082C18.4755 28.205 16.4559 28.7328 15.1569 28.7328C13.8578 28.7328 11.8382 28.205 11.4967 27.0082L11.4951 27.0099Z" fill="#0F171A"/>
<path d="M11.4951 27.0099L8.03922 14.1647L6.46569 30.0018H0L2.87418 5.11834C3.08007 2.97188 4.92647 1.73477 6.46569 1.59862C8.10784 1.45239 10.4003 2.16171 11.0163 4.48466L15.1552 20.6041L19.2941 4.48466C19.9101 2.16171 22.2026 1.45407 23.8448 1.59862C25.3856 1.73477 27.232 2.97188 27.4379 5.11834L30.3121 30.0001H23.8464L22.3072 14.0572L18.817 27.0082C18.4755 28.205 16.4559 28.7328 15.1569 28.7328C13.8578 28.7328 11.8382 28.205 11.4967 27.0082L11.4951 27.0099Z" fill="#0F1618"/>
<path d="M11.4951 27.0099L8.03922 14.1647L6.46569 30.0018H0L2.87418 5.11834C3.08007 2.97188 4.92647 1.73477 6.46569 1.59862C8.10784 1.45239 10.4003 2.16171 11.0163 4.48466L15.1552 20.6041L19.2941 4.48466C19.9101 2.16171 22.2026 1.45407 23.8448 1.59862C25.3856 1.73477 27.232 2.97188 27.4379 5.11834L30.3121 30.0001H23.8464L22.3072 14.0572L18.817 27.0082C18.4755 28.205 16.4559 28.7328 15.1569 28.7328C13.8578 28.7328 11.8382 28.205 11.4967 27.0082L11.4951 27.0099Z" fill="#0E1517"/>
<path d="M11.4951 27.0099L8.03922 14.1647L6.46569 30.0018H0L2.87418 5.11834C3.08007 2.97188 4.92647 1.73477 6.46569 1.59862C8.10784 1.45239 10.4003 2.16171 11.0163 4.48466L15.1552 20.6041L19.2941 4.48466C19.9101 2.16171 22.2026 1.45407 23.8448 1.59862C25.3856 1.73477 27.232 2.97188 27.4379 5.11834L30.3121 30.0001H23.8464L22.3072 14.0572L18.817 27.0082C18.4755 28.205 16.4559 28.7328 15.1569 28.7328C13.8578 28.7328 11.8382 28.205 11.4967 27.0082L11.4951 27.0099Z" fill="#0E1416"/>
<path d="M11.4951 27.0099L8.03922 14.1647L6.46569 30.0018H0L2.87418 5.11834C3.08007 2.97188 4.92647 1.73477 6.46569 1.59862C8.10784 1.45239 10.4003 2.16171 11.0163 4.48466L15.1552 20.6041L19.2941 4.48466C19.9101 2.16171 22.2026 1.45407 23.8448 1.59862C25.3856 1.73477 27.232 2.97188 27.4379 5.11834L30.3121 30.0001H23.8464L22.3072 14.0572L18.817 27.0082C18.4755 28.205 16.4559 28.7328 15.1569 28.7328C13.8578 28.7328 11.8382 28.205 11.4967 27.0082L11.4951 27.0099Z" fill="#0D1315"/>
<path d="M11.4951 27.0099L8.03922 14.1647L6.46569 30.0018H0L2.87418 5.11834C3.08007 2.97188 4.92647 1.73477 6.46569 1.59862C8.10784 1.45239 10.4003 2.16171 11.0163 4.48466L15.1552 20.6041L19.2941 4.48466C19.9101 2.16171 22.2026 1.45407 23.8448 1.59862C25.3856 1.73477 27.232 2.97188 27.4379 5.11834L30.3121 30.0001H23.8464L22.3072 14.0572L18.817 27.0082C18.4755 28.205 16.4559 28.7328 15.1569 28.7328C13.8578 28.7328 11.8382 28.205 11.4967 27.0082L11.4951 27.0099Z" fill="#0C1214"/>
<path d="M11.4951 27.0099L8.03922 14.1647L6.46569 30.0018H0L2.87418 5.11834C3.08007 2.97188 4.92647 1.73477 6.46569 1.59862C8.10784 1.45239 10.4003 2.16171 11.0163 4.48466L15.1552 20.6041L19.2941 4.48466C19.9101 2.16171 22.2026 1.45407 23.8448 1.59862C25.3856 1.73477 27.232 2.97188 27.4379 5.11834L30.3121 30.0001H23.8464L22.3072 14.0572L18.817 27.0082C18.4755 28.205 16.4559 28.7328 15.1569 28.7328C13.8578 28.7328 11.8382 28.205 11.4967 27.0082L11.4951 27.0099Z" fill="#0C1113"/>
<path d="M11.4951 27.0099L8.03922 14.1647L6.46569 30.0018H0L2.87418 5.11834C3.08007 2.97188 4.92647 1.73477 6.46569 1.59862C8.10784 1.45239 10.4003 2.16171 11.0163 4.48466L15.1552 20.6041L19.2941 4.48466C19.9101 2.16171 22.2026 1.45407 23.8448 1.59862C25.3856 1.73477 27.232 2.97188 27.4379 5.11834L30.3121 30.0001H23.8464L22.3072 14.0572L18.817 27.0082C18.4755 28.205 16.4559 28.7328 15.1569 28.7328C13.8578 28.7328 11.8382 28.205 11.4967 27.0082L11.4951 27.0099Z" fill="#0B1012"/>
<path d="M11.4951 27.0099L8.03922 14.1647L6.46569 30.0018H0L2.87418 5.11834C3.08007 2.97188 4.92647 1.73477 6.46569 1.59862C8.10784 1.45239 10.4003 2.16171 11.0163 4.48466L15.1552 20.6041L19.2941 4.48466C19.9101 2.16171 22.2026 1.45407 23.8448 1.59862C25.3856 1.73477 27.232 2.97188 27.4379 5.11834L30.3121 30.0001H23.8464L22.3072 14.0572L18.817 27.0082C18.4755 28.205 16.4559 28.7328 15.1569 28.7328C13.8578 28.7328 11.8382 28.205 11.4967 27.0082L11.4951 27.0099Z" fill="#0A0F11"/>
<path d="M11.4951 27.0099L8.03922 14.1647L6.46569 30.0018H0L2.87418 5.11834C3.08007 2.97188 4.92647 1.73477 6.46569 1.59862C8.10784 1.45239 10.4003 2.16171 11.0163 4.48466L15.1552 20.6041L19.2941 4.48466C19.9101 2.16171 22.2026 1.45407 23.8448 1.59862C25.3856 1.73477 27.232 2.97188 27.4379 5.11834L30.3121 30.0001H23.8464L22.3072 14.0572L18.817 27.0082C18.4755 28.205 16.4559 28.7328 15.1569 28.7328C13.8578 28.7328 11.8382 28.205 11.4967 27.0082L11.4951 27.0099Z" fill="#0A0F10"/>
<path d="M11.4951 27.0099L8.03922 14.1647L6.46569 30.0018H0L2.87418 5.11834C3.08007 2.97188 4.92647 1.73477 6.46569 1.59862C8.10784 1.45239 10.4003 2.16171 11.0163 4.48466L15.1552 20.6041L19.2941 4.48466C19.9101 2.16171 22.2026 1.45407 23.8448 1.59862C25.3856 1.73477 27.232 2.97188 27.4379 5.11834L30.3121 30.0001H23.8464L22.3072 14.0572L18.817 27.0082C18.4755 28.205 16.4559 28.7328 15.1569 28.7328C13.8578 28.7328 11.8382 28.205 11.4967 27.0082L11.4951 27.0099Z" fill="#090E0F"/>
<path d="M11.4951 27.0099L8.03922 14.1647L6.46569 30.0018H0L2.87418 5.11834C3.08007 2.97188 4.92647 1.73477 6.46569 1.59862C8.10784 1.45239 10.4003 2.16171 11.0163 4.48466L15.1552 20.6041L19.2941 4.48466C19.9101 2.16171 22.2026 1.45407 23.8448 1.59862C25.3856 1.73477 27.232 2.97188 27.4379 5.11834L30.3121 30.0001H23.8464L22.3072 14.0572L18.817 27.0082C18.4755 28.205 16.4559 28.7328 15.1569 28.7328C13.8578 28.7328 11.8382 28.205 11.4967 27.0082L11.4951 27.0099Z" fill="#080D0E"/>
<path d="M11.4951 27.0099L8.03922 14.1647L6.46569 30.0018H0L2.87418 5.11834C3.08007 2.97188 4.92647 1.73477 6.46569 1.59862C8.10784 1.45239 10.4003 2.16171 11.0163 4.48466L15.1552 20.6041L19.2941 4.48466C19.9101 2.16171 22.2026 1.45407 23.8448 1.59862C25.3856 1.73477 27.232 2.97188 27.4379 5.11834L30.3121 30.0001H23.8464L22.3072 14.0572L18.817 27.0082C18.4755 28.205 16.4559 28.7328 15.1569 28.7328C13.8578 28.7328 11.8382 28.205 11.4967 27.0082L11.4951 27.0099Z" fill="#080C0D"/>
<path d="M11.4951 27.0099L8.03922 14.1647L6.46569 30.0018H0L2.87418 5.11834C3.08007 2.97188 4.92647 1.73477 6.46569 1.59862C8.10784 1.45239 10.4003 2.16171 11.0163 4.48466L15.1552 20.6041L19.2941 4.48466C19.9101 2.16171 22.2026 1.45407 23.8448 1.59862C25.3856 1.73477 27.232 2.97188 27.4379 5.11834L30.3121 30.0001H23.8464L22.3072 14.0572L18.817 27.0082C18.4755 28.205 16.4559 28.7328 15.1569 28.7328C13.8578 28.7328 11.8382 28.205 11.4967 27.0082L11.4951 27.0099Z" fill="#070B0C"/>
<path d="M11.4951 27.0099L8.03922 14.1647L6.46569 30.0018H0L2.87418 5.11834C3.08007 2.97188 4.92647 1.73477 6.46569 1.59862C8.10784 1.45239 10.4003 2.16171 11.0163 4.48466L15.1552 20.6041L19.2941 4.48466C19.9101 2.16171 22.2026 1.45407 23.8448 1.59862C25.3856 1.73477 27.232 2.97188 27.4379 5.11834L30.3121 30.0001H23.8464L22.3072 14.0572L18.817 27.0082C18.4755 28.205 16.4559 28.7328 15.1569 28.7328C13.8578 28.7328 11.8382 28.205 11.4967 27.0082L11.4951 27.0099Z" fill="#060A0B"/>
<path d="M11.4951 27.0099L8.03922 14.1647L6.46569 30.0018H0L2.87418 5.11834C3.08007 2.97188 4.92647 1.73477 6.46569 1.59862C8.10784 1.45239 10.4003 2.16171 11.0163 4.48466L15.1552 20.6041L19.2941 4.48466C19.9101 2.16171 22.2026 1.45407 23.8448 1.59862C25.3856 1.73477 27.232 2.97188 27.4379 5.11834L30.3121 30.0001H23.8464L22.3072 14.0572L18.817 27.0082C18.4755 28.205 16.4559 28.7328 15.1569 28.7328C13.8578 28.7328 11.8382 28.205 11.4967 27.0082L11.4951 27.0099Z" fill="#06090A"/>
<path d="M11.4951 27.0099L8.03922 14.1647L6.46569 30.0018H0L2.87418 5.11834C3.08007 2.97188 4.92647 1.73477 6.46569 1.59862C8.10784 1.45239 10.4003 2.16171 11.0163 4.48466L15.1552 20.6041L19.2941 4.48466C19.9101 2.16171 22.2026 1.45407 23.8448 1.59862C25.3856 1.73477 27.232 2.97188 27.4379 5.11834L30.3121 30.0001H23.8464L22.3072 14.0572L18.817 27.0082C18.4755 28.205 16.4559 28.7328 15.1569 28.7328C13.8578 28.7328 11.8382 28.205 11.4967 27.0082L11.4951 27.0099Z" fill="#050809"/>
<path d="M11.4951 27.0099L8.03922 14.1647L6.46569 30.0018H0L2.87418 5.11834C3.08007 2.97188 4.92647 1.73477 6.46569 1.59862C8.10784 1.45239 10.4003 2.16171 11.0163 4.48466L15.1552 20.6041L19.2941 4.48466C19.9101 2.16171 22.2026 1.45407 23.8448 1.59862C25.3856 1.73477 27.232 2.97188 27.4379 5.11834L30.3121 30.0001H23.8464L22.3072 14.0572L18.817 27.0082C18.4755 28.205 16.4559 28.7328 15.1569 28.7328C13.8578 28.7328 11.8382 28.205 11.4967 27.0082L11.4951 27.0099Z" fill="#050707"/>
<path d="M11.4951 27.0099L8.03922 14.1647L6.46569 30.0018H0L2.87418 5.11834C3.08007 2.97188 4.92647 1.73477 6.46569 1.59862C8.10784 1.45239 10.4003 2.16171 11.0163 4.48466L15.1552 20.6041L19.2941 4.48466C19.9101 2.16171 22.2026 1.45407 23.8448 1.59862C25.3856 1.73477 27.232 2.97188 27.4379 5.11834L30.3121 30.0001H23.8464L22.3072 14.0572L18.817 27.0082C18.4755 28.205 16.4559 28.7328 15.1569 28.7328C13.8578 28.7328 11.8382 28.205 11.4967 27.0082L11.4951 27.0099Z" fill="#040606"/>
<path d="M11.4951 27.0099L8.03922 14.1647L6.46569 30.0018H0L2.87418 5.11834C3.08007 2.97188 4.92647 1.73477 6.46569 1.59862C8.10784 1.45239 10.4003 2.16171 11.0163 4.48466L15.1552 20.6041L19.2941 4.48466C19.9101 2.16171 22.2026 1.45407 23.8448 1.59862C25.3856 1.73477 27.232 2.97188 27.4379 5.11834L30.3121 30.0001H23.8464L22.3072 14.0572L18.817 27.0082C18.4755 28.205 16.4559 28.7328 15.1569 28.7328C13.8578 28.7328 11.8382 28.205 11.4967 27.0082L11.4951 27.0099Z" fill="#030505"/>
<path d="M11.4951 27.0099L8.03922 14.1647L6.46569 30.0018H0L2.87418 5.11834C3.08007 2.97188 4.92647 1.73477 6.46569 1.59862C8.10784 1.45239 10.4003 2.16171 11.0163 4.48466L15.1552 20.6041L19.2941 4.48466C19.9101 2.16171 22.2026 1.45407 23.8448 1.59862C25.3856 1.73477 27.232 2.97188 27.4379 5.11834L30.3121 30.0001H23.8464L22.3072 14.0572L18.817 27.0082C18.4755 28.205 16.4559 28.7328 15.1569 28.7328C13.8578 28.7328 11.8382 28.205 11.4967 27.0082L11.4951 27.0099Z" fill="#030404"/>
<path d="M11.4951 27.0099L8.03922 14.1647L6.46569 30.0018H0L2.87418 5.11834C3.08007 2.97188 4.92647 1.73477 6.46569 1.59862C8.10784 1.45239 10.4003 2.16171 11.0163 4.48466L15.1552 20.6041L19.2941 4.48466C19.9101 2.16171 22.2026 1.45407 23.8448 1.59862C25.3856 1.73477 27.232 2.97188 27.4379 5.11834L30.3121 30.0001H23.8464L22.3072 14.0572L18.817 27.0082C18.4755 28.205 16.4559 28.7328 15.1569 28.7328C13.8578 28.7328 11.8382 28.205 11.4967 27.0082L11.4951 27.0099Z" fill="#020303"/>
<path d="M11.4951 27.0099L8.03922 14.1647L6.46569 30.0018H0L2.87418 5.11834C3.08007 2.97188 4.92647 1.73477 6.46569 1.59862C8.10784 1.45239 10.4003 2.16171 11.0163 4.48466L15.1552 20.6041L19.2941 4.48466C19.9101 2.16171 22.2026 1.45407 23.8448 1.59862C25.3856 1.73477 27.232 2.97188 27.4379 5.11834L30.3121 30.0001H23.8464L22.3072 14.0572L18.817 27.0082C18.4755 28.205 16.4559 28.7328 15.1569 28.7328C13.8578 28.7328 11.8382 28.205 11.4967 27.0082L11.4951 27.0099Z" fill="#010202"/>
<path d="M11.4951 27.0099L8.03922 14.1647L6.46569 30.0018H0L2.87418 5.11834C3.08007 2.97188 4.92647 1.73477 6.46569 1.59862C8.10784 1.45239 10.4003 2.16171 11.0163 4.48466L15.1552 20.6041L19.2941 4.48466C19.9101 2.16171 22.2026 1.45407 23.8448 1.59862C25.3856 1.73477 27.232 2.97188 27.4379 5.11834L30.3121 30.0001H23.8464L22.3072 14.0572L18.817 27.0082C18.4755 28.205 16.4559 28.7328 15.1569 28.7328C13.8578 28.7328 11.8382 28.205 11.4967 27.0082L11.4951 27.0099Z" fill="#010101"/>
<path d="M11.4951 27.0098L8.03922 14.1647L6.46569 30.0017H0L2.87418 5.11828C3.08007 2.97182 4.92647 1.73975 6.46569 1.59856C8.10784 1.45736 10.4003 2.16165 11.0163 4.48459L15.1552 20.604L19.2941 4.48459C19.9101 2.16165 22.2026 1.45736 23.8448 1.59856C25.384 1.73975 27.232 2.97182 27.4379 5.11828L30.3121 30.0001H23.8464L22.3072 14.0571L18.817 27.0081C18.4755 28.2049 16.4559 28.7327 15.1569 28.7327C13.8578 28.7327 11.8382 28.2049 11.4967 27.0081L11.4951 27.0098Z" fill="black"/>
</g>
<defs>
<clipPath id="clip0_2_1500">
<rect width="33" height="30" fill="white"/>
</clipPath>
</defs>
</svg>
